<svg width="705" height="216" viewBox="0 0 705 216" fill="none" xmlns="http://www.w3.org/2000/svg">
<g clip-path="url(#clip0_1959_58)">
<path fill-rule="evenodd" clip-rule="evenodd" d="M-35.5 -39.5H744.5V223.5H-35.5V-39.5ZM43.6618 154.254C52.5264 158.035 62.1188 159.925 72.4388 159.925C86.3312 159.925 98.2389 157.022 108.162 151.216C118.218 145.275 125.891 137.24 131.184 127.113C133.027 123.626 134.557 119.975 135.774 116.16C136.988 120.556 138.647 124.773 140.753 128.811C145.872 138.183 153.023 145.712 162.207 151.397C171.391 157.082 182.005 159.925 194.05 159.925C205.643 159.925 216.107 157.543 225.441 152.78C234.776 148.017 241.777 141.871 246.444 134.342L222.731 116.134C220.021 120.744 216.182 124.585 211.214 127.658C206.396 130.731 200.675 132.268 194.05 132.268C186.372 132.268 179.973 130.04 174.854 125.584C169.886 121.128 166.573 115.366 164.917 108.298H243.098C244.262 115.585 246.611 122.422 250.145 128.811C255.565 138.183 263.017 145.712 272.502 151.397C281.987 157.082 292.752 159.925 304.797 159.925C316.992 159.925 327.757 157.082 337.091 151.397C346.577 145.712 353.954 138.183 359.223 128.811C360.671 126.266 361.925 123.651 362.986 120.964C366.43 127.762 370.781 133.898 376.039 139.374C382.702 146.174 390.432 151.479 399.229 155.287C408.158 159.096 417.82 161 428.216 161C442.21 161 454.205 158.076 464.2 152.227C474.329 146.242 482.059 138.15 487.39 127.949C490.745 121.603 493.07 114.719 494.365 107.297V156.184H525.091V63.5853H541.211V119.822C541.211 132.882 544.298 142.332 550.47 148.17C556.643 154.009 565.526 156.928 577.119 156.928H593.831V131.813C598.786 139.804 605.355 146.332 613.537 151.397C622.721 157.082 633.335 159.924 645.379 159.924C656.972 159.924 667.436 157.543 676.771 152.779C686.105 148.016 693.106 141.87 697.773 134.341L674.061 116.134C671.351 120.743 667.511 124.584 662.543 127.658C657.725 130.731 652.004 132.267 645.379 132.267C637.701 132.267 631.302 130.039 626.183 125.583C621.215 121.127 617.903 115.365 616.247 108.297H704.097C704.398 106.3 704.624 104.379 704.774 102.535C704.925 100.692 705 98.9247 705 97.2345C705 85.7107 702.441 75.1856 697.322 65.6592C692.353 55.9792 685.352 48.2966 676.319 42.6115C667.436 36.9264 657.123 34.0838 645.379 34.0838C633.636 34.0838 623.172 36.9264 613.988 42.6115C607.068 46.9666 601.252 52.494 596.541 59.1937V37.0805H571.699L572.557 12.8804L556.616 12.8802L524.977 62.2825L494.365 62.246C494.365 55.7063 490.61 48.3481 488 44C486.799 42 485.5 40.1019 482 35.9722C476.046 28.9468 466.799 22.6052 458.403 18.7968C450.14 14.8524 440.077 12.8802 428.216 12.8802C417.82 12.8802 408.158 14.8524 399.229 18.7968C390.432 22.6052 382.702 27.9098 376.039 34.7105C369.508 41.5112 364.377 49.4001 360.645 58.3771C359.849 60.3627 359.141 62.3782 358.521 64.4238C353.306 55.4734 346.163 48.2797 337.091 42.8427C327.757 37.1576 316.992 34.3151 304.797 34.3151C292.752 34.3151 281.987 37.1576 272.502 42.8427C263.017 48.5278 255.565 56.1336 250.145 65.66C249.388 67.0274 248.686 68.4153 248.038 69.8238C247.409 68.4153 246.727 67.0274 245.992 65.66C241.024 55.9799 234.023 48.2973 224.99 42.6122C216.107 36.9271 205.794 34.0846 194.05 34.0846C182.307 34.0846 171.843 36.9271 162.659 42.6122C153.625 48.2973 146.474 55.9799 141.204 65.66C139.318 69.0705 137.769 72.609 136.558 76.2756H65.8896V101.796L111.536 101.391C110.344 109.703 107.698 116.418 103.597 121.534C102.236 123.232 100.715 124.754 99.0328 126.101C92.2851 131.367 83.4204 134 72.4388 134C63.5742 134 55.8341 131.839 49.2187 127.518C42.7356 123.198 37.7079 117.459 34.1356 110.302C30.5632 103.146 28.7771 95.2469 28.7771 86.6052C28.7771 77.9634 30.5632 70.0643 34.1356 62.9078C37.7079 55.7514 42.7356 50.0127 49.2187 45.6919C55.8341 41.371 63.5742 39.2105 72.4388 39.2105C78.9219 39.2105 84.8097 40.4258 90.102 42.8563C93.6313 44.4771 98.2549 47.972 101.206 51.3067C103.497 53.8947 106.673 58.7954 107.24 61.8878H134.433C134.433 55.3955 132.483 50.3651 130.2 45.6919C128.087 41.3661 126.823 39.6891 125.158 37.4801C124.638 36.7907 124.08 36.0494 123.444 35.1597C117.754 28.0032 110.742 22.5347 102.407 18.7539C94.2035 14.8381 84.2143 12.8802 72.4388 12.8802C62.1188 12.8802 52.5264 14.8381 43.6618 18.7539C34.9294 22.5347 27.2555 27.8007 20.6401 34.5521C14.157 41.3034 9.06312 49.135 5.35849 58.0469C1.78616 66.9587 0 76.4781 0 86.6052C0 96.7322 1.78616 106.252 5.35849 115.163C9.06312 123.94 14.157 131.704 20.6401 138.456C27.2555 145.207 34.9294 150.473 43.6618 154.254ZM524.977 62.2825L525.091 62.2826V63.5853H524.725V62.6759L524.977 62.2825ZM494.365 62.246V107.297H466.602C465.163 113.29 462.83 118.301 459.602 122.328C458.231 124.039 456.699 125.572 455.004 126.928C448.207 132.233 439.278 134.885 428.216 134.885C419.286 134.885 411.49 132.709 404.826 128.357C398.296 124.004 393.231 118.223 389.633 111.015C386.034 103.806 384.235 95.8491 384.235 87.1441C384.235 78.4392 386.034 70.4824 389.633 63.2736C393.231 56.0648 398.296 50.2842 404.826 45.9317C411.49 41.5793 419.286 39.403 428.216 39.403C434.746 39.403 440.677 40.6272 446.008 43.0754C449.563 44.7081 454.221 48.2285 457.194 51.5877C459.501 54.1946 462.7 59.131 463.271 62.246H494.365ZM571.699 63.5853H593.71C593.308 64.2661 592.916 64.9574 592.534 65.6592C587.264 75.1856 584.63 85.7107 584.63 97.2345C584.63 108.758 587.114 119.283 592.082 128.81L592.162 128.956C592.22 129.061 592.278 129.166 592.337 129.271H581.184C574.861 129.271 571.699 125.584 571.699 118.208V63.5853ZM193.598 60.82C186.372 60.82 180.199 63.0479 175.08 67.5038C169.961 71.9597 166.573 77.7984 164.917 85.02H222.957C221.301 78.413 217.838 72.7279 212.569 67.9647C207.45 63.2016 201.126 60.82 193.598 60.82ZM321.735 126.967C316.917 130.04 311.271 131.576 304.797 131.576C298.323 131.576 292.677 130.04 287.859 126.967C283.041 123.74 279.277 119.515 276.567 114.291C274.008 109.066 272.728 103.381 272.728 97.2353C272.728 90.9356 274.008 85.1736 276.567 79.9495C279.277 74.7254 283.041 70.5768 287.859 67.5038C292.677 64.2771 298.323 62.6638 304.797 62.6638C311.271 62.6638 316.917 64.2771 321.735 67.5038C326.552 70.5768 330.241 74.7254 332.801 79.9495C335.511 85.1736 336.866 90.9356 336.866 97.2353C336.866 103.381 335.511 109.066 332.801 114.291C330.241 119.515 326.552 123.74 321.735 126.967ZM517.934 39.7824L510.31 51.5867L495.364 28.5685L494.96 27.9408C493.16 25.0158 492.26 21.7312 492.26 18.0872C492.26 13.2029 493.98 9.00545 497.42 5.49486C501.009 1.83162 505.346 0 510.431 0C515.666 0 520.003 1.83162 523.443 5.49486C526.883 9.00545 528.603 13.2029 528.603 18.0872C528.603 21.8019 527.722 25.0864 525.959 27.9408L525.577 28.5325C525.556 28.5634 525.535 28.5944 525.514 28.6253L517.934 39.7824ZM644.928 60.8192C637.701 60.8192 631.528 63.0471 626.409 67.503C621.29 71.9589 617.903 77.7976 616.247 85.0193H674.286C672.63 78.4123 669.167 72.7272 663.898 67.964C658.779 63.2008 652.456 60.8192 644.928 60.8192Z" fill="white"/>
<path d="M577.894 209.697L590.659 179.602H593.643L606.408 209.697H603.545L592.193 182.934H592.109L580.758 209.697H577.894Z" fill="#FDCE19"/>
<path d="M555.083 182.327V179.602H576.809V182.327H567.442V209.606H564.435V182.327H555.083Z" fill="black"/>
<path d="M521.357 209.606L513 179.602H516.441L522.974 204.933H523.432L529.995 179.602H533.45L540.013 204.933H540.258L546.792 179.602H550.165L542.056 209.606H538.268L531.517 184.7H531.745L524.994 209.606H521.357Z" fill="black"/>
<path d="M633.631 209.867H613.913V178.484H616.86V207.333H633.631V209.867Z" fill="black"/>
<path d="M652.417 197.524C651.315 197.935 650.198 198.226 649.067 198.397C647.936 198.595 646.805 198.723 645.675 198.78C641.505 199.021 639.391 200.625 639.335 203.591C639.363 204.926 639.872 205.926 640.862 206.593C641.823 207.289 642.939 207.637 644.212 207.637C646.374 207.637 648.268 207.097 649.894 206.019C651.519 204.982 652.361 203.329 652.417 201.058V197.524ZM644.424 196.693L648.028 196.225C648.551 196.154 649.145 196.062 649.809 195.948C650.445 195.806 650.996 195.65 651.463 195.48C651.887 195.238 652.163 194.891 652.29 194.436C652.375 193.968 652.417 193.528 652.417 193.116C652.417 191.754 651.993 190.654 651.145 189.816C650.283 188.993 648.834 188.567 646.798 188.539C645.017 188.511 643.547 188.858 642.388 189.582C641.257 190.349 640.544 191.704 640.247 193.649H637.596C637.865 190.994 638.854 189.071 640.565 187.879C642.261 186.758 644.36 186.197 646.862 186.197C649.194 186.197 651.131 186.701 652.672 187.709C654.198 188.787 654.983 190.618 655.025 193.202V205.508C654.983 206.487 655.166 207.112 655.576 207.381C655.958 207.665 656.686 207.623 657.76 207.253V209.297C657.576 209.354 657.301 209.425 656.933 209.51C656.523 209.652 656.113 209.723 655.703 209.723C655.308 209.723 654.919 209.681 654.537 209.595C653.703 209.425 653.152 209.021 652.884 208.382C652.629 207.743 652.488 207.033 652.459 206.253C650.198 208.723 647.399 209.972 644.063 210C642.042 210 640.31 209.446 638.868 208.339C637.356 207.289 636.586 205.678 636.557 203.506C636.557 199.688 639.179 197.417 644.424 196.693Z" fill="black"/>
<path d="M664.778 198.013C664.778 200.767 665.443 203.045 666.771 204.848C668.044 206.679 669.909 207.608 672.369 207.637C674.631 207.637 676.468 206.856 677.882 205.295C679.267 203.804 679.988 201.633 680.044 198.78C680.2 195.884 679.641 193.457 678.369 191.498C677.055 189.554 675.055 188.567 672.369 188.539C669.994 188.596 668.142 189.525 666.814 191.328C665.457 193.131 664.778 195.359 664.778 198.013ZM664.778 205.422V209.383H662.17V178H664.778V190.413C665.641 189.022 666.793 187.964 668.234 187.24C669.69 186.545 671.217 186.197 672.814 186.197C676.221 186.254 678.751 187.439 680.405 189.752C682.03 192.052 682.843 194.848 682.843 198.141C682.843 201.533 682.073 204.337 680.532 206.551C678.906 208.794 676.284 209.943 672.666 210C671.196 209.972 669.74 209.56 668.298 208.765C666.842 208.013 665.697 206.899 664.863 205.422H664.778Z" fill="black"/>
<path d="M687.274 202.314H689.925C690.617 205.948 692.865 207.722 696.667 207.637C698.576 207.608 699.975 207.175 700.865 206.338C701.77 205.543 702.222 204.578 702.222 203.442C702.222 202.633 702.032 201.966 701.65 201.441C701.24 200.916 700.689 200.511 699.996 200.228C699.713 200.057 699.367 199.908 698.957 199.78C698.547 199.639 698.13 199.525 697.706 199.44C696.83 199.269 695.932 199.099 695.013 198.929C694.575 198.773 694.151 198.638 693.741 198.524C693.317 198.439 692.886 198.326 692.448 198.184C691.572 197.914 690.787 197.566 690.094 197.14C689.402 196.672 688.851 196.076 688.441 195.352C688.017 194.614 687.805 193.713 687.805 192.648C687.805 190.718 688.511 189.163 689.925 187.985C691.282 186.821 693.204 186.225 695.692 186.197C700.71 186.098 703.608 188.461 704.385 193.287H701.735C701.509 191.541 700.858 190.306 699.784 189.582C698.682 188.887 697.303 188.539 695.65 188.539C692.3 188.624 690.61 189.916 690.582 192.414C690.582 193.152 690.801 193.762 691.239 194.245C691.635 194.713 692.179 195.111 692.872 195.437C694.3 196.047 695.939 196.537 697.791 196.906C698.71 197.119 699.607 197.367 700.484 197.651C701.346 197.949 702.109 198.34 702.774 198.822C703.466 199.291 704.018 199.901 704.428 200.653C704.809 201.391 705 202.307 705 203.4C704.972 205.557 704.117 207.19 702.434 208.297C700.724 209.432 698.526 210 695.84 210C693.169 209.972 691.112 209.212 689.67 207.722C688.214 206.303 687.416 204.5 687.274 202.314Z" fill="black"/>
<path d="M2.2017 210V191.818H8.34517C9.77154 191.818 10.9375 192.076 11.843 192.591C12.7545 193.1 13.4292 193.789 13.8672 194.659C14.3052 195.529 14.5241 196.5 14.5241 197.571C14.5241 198.642 14.3052 199.616 13.8672 200.492C13.4351 201.368 12.7663 202.066 11.8608 202.587C10.9553 203.102 9.79522 203.359 8.38068 203.359H3.97727V201.406H8.30966C9.28622 201.406 10.0704 201.238 10.6623 200.9C11.2541 200.563 11.6832 200.107 11.9496 199.533C12.2218 198.953 12.358 198.299 12.358 197.571C12.358 196.843 12.2218 196.192 11.9496 195.618C11.6832 195.044 11.2512 194.594 10.6534 194.268C10.0556 193.937 9.26255 193.771 8.27415 193.771H4.40341V210H2.2017ZM23.18 210.284C21.949 210.284 20.8688 209.991 19.9396 209.405C19.0163 208.819 18.2943 208 17.7734 206.946C17.2585 205.893 17.0011 204.661 17.0011 203.253C17.0011 201.832 17.2585 200.592 17.7734 199.533C18.2943 198.474 19.0163 197.651 19.9396 197.065C20.8688 196.479 21.949 196.186 23.18 196.186C24.4111 196.186 25.4883 196.479 26.4116 197.065C27.3408 197.651 28.0629 198.474 28.5778 199.533C29.0986 200.592 29.359 201.832 29.359 203.253C29.359 204.661 29.0986 205.893 28.5778 206.946C28.0629 208 27.3408 208.819 26.4116 209.405C25.4883 209.991 24.4111 210.284 23.18 210.284ZM23.18 208.402C24.1152 208.402 24.8846 208.162 25.4883 207.683C26.092 207.203 26.5388 206.573 26.8288 205.792C27.1188 205.011 27.2638 204.164 27.2638 203.253C27.2638 202.341 27.1188 201.492 26.8288 200.705C26.5388 199.918 26.092 199.281 25.4883 198.796C24.8846 198.311 24.1152 198.068 23.18 198.068C22.2449 198.068 21.4755 198.311 20.8718 198.796C20.2681 199.281 19.8213 199.918 19.5312 200.705C19.2412 201.492 19.0962 202.341 19.0962 203.253C19.0962 204.164 19.2412 205.011 19.5312 205.792C19.8213 206.573 20.2681 207.203 20.8718 207.683C21.4755 208.162 22.2449 208.402 23.18 208.402ZM35.1829 210L31.0281 196.364H33.2298L36.1772 206.804H36.3192L39.2312 196.364H41.4684L44.3448 206.768H44.4869L47.4343 196.364H49.636L45.4812 210H43.4215L40.4386 199.524H40.2255L37.2425 210H35.1829ZM57.6594 210.284C56.3454 210.284 55.212 209.994 54.2591 209.414C53.3122 208.828 52.5812 208.011 52.0663 206.964C51.5573 205.91 51.3028 204.685 51.3028 203.288C51.3028 201.892 51.5573 200.661 52.0663 199.595C52.5812 198.524 53.2974 197.689 54.2148 197.092C55.1381 196.488 56.2152 196.186 57.4463 196.186C58.1565 196.186 58.8579 196.304 59.5503 196.541C60.2428 196.778 60.8731 197.163 61.4413 197.695C62.0095 198.222 62.4623 198.92 62.7996 199.79C63.137 200.661 63.3057 201.732 63.3057 203.004V203.892H52.7943V202.081H61.175C61.175 201.312 61.0211 200.625 60.7133 200.021C60.4115 199.418 59.9794 198.941 59.4172 198.592C58.8608 198.243 58.2039 198.068 57.4463 198.068C56.6118 198.068 55.8897 198.275 55.2801 198.69C54.6764 199.098 54.2118 199.631 53.8863 200.288C53.5608 200.945 53.398 201.649 53.398 202.401V203.608C53.398 204.638 53.5756 205.511 53.9307 206.227C54.2917 206.937 54.7918 207.479 55.431 207.852C56.0702 208.219 56.813 208.402 57.6594 208.402C58.2098 208.402 58.7069 208.325 59.1508 208.171C59.6006 208.011 59.9883 207.775 60.3138 207.461C60.6394 207.141 60.8909 206.745 61.0684 206.271L63.0926 206.839C62.8795 207.526 62.5215 208.13 62.0184 208.651C61.5153 209.165 60.8939 209.568 60.154 209.858C59.4142 210.142 58.5827 210.284 57.6594 210.284ZM66.4928 210V196.364H68.517V198.423H68.659C68.9076 197.749 69.3574 197.201 70.0084 196.781C70.6595 196.361 71.3934 196.151 72.2101 196.151C72.364 196.151 72.5564 196.154 72.7872 196.159C73.018 196.165 73.1926 196.174 73.311 196.186V198.317C73.24 198.299 73.0772 198.272 72.8227 198.237C72.5741 198.195 72.3108 198.175 72.0326 198.175C71.3697 198.175 70.7778 198.314 70.257 198.592C69.7421 198.864 69.3337 199.243 69.0319 199.728C68.7359 200.208 68.588 200.755 68.588 201.371V210H66.4928ZM81.0969 210.284C79.7829 210.284 78.6495 209.994 77.6966 209.414C76.7497 208.828 76.0187 208.011 75.5038 206.964C74.9948 205.91 74.7403 204.685 74.7403 203.288C74.7403 201.892 74.9948 200.661 75.5038 199.595C76.0187 198.524 76.7349 197.689 77.6523 197.092C78.5756 196.488 79.6527 196.186 80.8838 196.186C81.594 196.186 82.2954 196.304 82.9878 196.541C83.6803 196.778 84.3106 197.163 84.8788 197.695C85.447 198.222 85.8998 198.92 86.2371 199.79C86.5745 200.661 86.7432 201.732 86.7432 203.004V203.892H76.2318V202.081H84.6125C84.6125 201.312 84.4586 200.625 84.1508 200.021C83.849 199.418 83.4169 198.941 82.8547 198.592C82.2983 198.243 81.6414 198.068 80.8838 198.068C80.0493 198.068 79.3272 198.275 78.7176 198.69C78.1139 199.098 77.6493 199.631 77.3238 200.288C76.9983 200.945 76.8355 201.649 76.8355 202.401V203.608C76.8355 204.638 77.0131 205.511 77.3682 206.227C77.7292 206.937 78.2293 207.479 78.8685 207.852C79.5077 208.219 80.2505 208.402 81.0969 208.402C81.6473 208.402 82.1444 208.325 82.5883 208.171C83.0381 208.011 83.4258 207.775 83.7513 207.461C84.0769 207.141 84.3284 206.745 84.5059 206.271L86.5301 206.839C86.317 207.526 85.959 208.13 85.4559 208.651C84.9528 209.165 84.3314 209.568 83.5915 209.858C82.8517 210.142 82.0202 210.284 81.0969 210.284ZM95.0795 210.284C93.9431 210.284 92.9399 209.997 92.0699 209.423C91.1998 208.843 90.5192 208.026 90.028 206.973C89.5367 205.913 89.2911 204.661 89.2911 203.217C89.2911 201.785 89.5367 200.542 90.028 199.489C90.5192 198.435 91.2028 197.621 92.0787 197.047C92.9547 196.473 93.9668 196.186 95.115 196.186C96.0028 196.186 96.7041 196.334 97.219 196.63C97.7398 196.92 98.1364 197.251 98.4086 197.624C98.6868 197.991 98.9028 198.293 99.0567 198.53H99.2343V191.818H101.329V210H99.3053V207.905H99.0567C98.9028 208.153 98.6839 208.467 98.3998 208.846C98.1157 209.219 97.7103 209.553 97.1835 209.849C96.6568 210.139 95.9554 210.284 95.0795 210.284ZM95.3635 208.402C96.204 208.402 96.9142 208.183 97.4942 207.745C98.0742 207.301 98.5152 206.689 98.817 205.907C99.1189 205.12 99.2698 204.212 99.2698 203.182C99.2698 202.164 99.1218 201.273 98.8259 200.51C98.53 199.74 98.092 199.142 97.512 198.716C96.932 198.284 96.2158 198.068 95.3635 198.068C94.4758 198.068 93.7359 198.296 93.1441 198.752C92.5581 199.202 92.1172 199.814 91.8213 200.589C91.5313 201.359 91.3863 202.223 91.3863 203.182C91.3863 204.152 91.5342 205.034 91.8302 205.827C92.132 206.615 92.5759 207.242 93.1618 207.71C93.7537 208.171 94.4876 208.402 95.3635 208.402ZM112.773 210V191.818H114.868V198.53H115.046C115.2 198.293 115.413 197.991 115.685 197.624C115.963 197.251 116.36 196.92 116.875 196.63C117.395 196.334 118.1 196.186 118.987 196.186C120.136 196.186 121.148 196.473 122.024 197.047C122.9 197.621 123.583 198.435 124.074 199.489C124.566 200.542 124.811 201.785 124.811 203.217C124.811 204.661 124.566 205.913 124.074 206.973C123.583 208.026 122.903 208.843 122.033 209.423C121.163 209.997 120.159 210.284 119.023 210.284C118.147 210.284 117.446 210.139 116.919 209.849C116.392 209.553 115.987 209.219 115.703 208.846C115.419 208.467 115.2 208.153 115.046 207.905H114.797V210H112.773ZM114.833 203.182C114.833 204.212 114.984 205.12 115.285 205.907C115.587 206.689 116.028 207.301 116.608 207.745C117.188 208.183 117.898 208.402 118.739 208.402C119.615 208.402 120.346 208.171 120.932 207.71C121.524 207.242 121.967 206.615 122.263 205.827C122.565 205.034 122.716 204.152 122.716 203.182C122.716 202.223 122.568 201.359 122.272 200.589C121.982 199.814 121.541 199.202 120.949 198.752C120.364 198.296 119.627 198.068 118.739 198.068C117.887 198.068 117.17 198.284 116.59 198.716C116.01 199.142 115.572 199.74 115.277 200.51C114.981 201.273 114.833 202.164 114.833 203.182ZM128.877 215.114C128.522 215.114 128.206 215.084 127.927 215.025C127.649 214.972 127.457 214.918 127.35 214.865L127.883 213.018C128.392 213.149 128.842 213.196 129.233 213.161C129.623 213.125 129.969 212.95 130.271 212.637C130.579 212.329 130.86 211.829 131.115 211.136L131.505 210.071L126.463 196.364H128.735L132.5 207.23H132.642L136.406 196.364H138.679L132.89 211.989C132.63 212.693 132.307 213.276 131.922 213.738C131.538 214.205 131.091 214.551 130.582 214.776C130.079 215.001 129.511 215.114 128.877 215.114Z" fill="black"/>
</g>
<defs>
<clipPath id="clip0_1959_58">
<rect width="705" height="216" fill="white"/>
</clipPath>
</defs>
</svg>
